<svg width="563" height="344" viewBox="0 0 563 344" fill="none" xmlns="http://www.w3.org/2000/svg">
<rect x="9.09424" y="1.40173" width="527.145" height="325.74" rx="9.66323" transform="rotate(1.43264 9.09424 1.40173)" stroke="black" stroke-width="1.56701" stroke-dasharray="7.31 7.31"/>
<rect x="27.3091" y="18.6104" width="527.113" height="324.792" rx="10.4467" transform="rotate(-1.49663 27.3091 18.6104)" fill="#FCE4EC"/>
<line x1="60.982" y1="293.674" x2="100.68" y2="314.567" stroke="black" stroke-width="1.04467"/>
<circle cx="104.615" cy="317.119" r="5.22337" fill="#EED06F"/>
<path d="M83.5127 43.9171L76.6178 68.9893L74.3195 59.5872C77.3143 59.5872 79.7518 60.4578 81.6322 62.1989C83.5127 63.94 84.4529 66.3428 84.4529 69.4071C84.4529 72.4019 83.4778 74.8394 81.5278 76.7199C79.6474 78.5306 77.2794 79.436 74.424 79.436C71.4989 79.436 69.0613 78.5306 67.1113 76.7199C65.2309 74.8394 64.2907 72.4019 64.2907 69.4071C64.2907 68.5018 64.3603 67.6312 64.4996 66.7955C64.6389 65.8901 64.9175 64.8454 65.3353 63.6614C65.7532 62.4775 66.3452 60.9105 67.1113 58.9604L73.1704 43.9171L83.5127 43.9171ZM108.167 43.9171L101.272 68.9893L98.9738 59.5872C101.969 59.5872 104.406 60.4578 106.287 62.1989C108.167 63.94 109.107 66.3428 109.107 69.4071C109.107 72.4019 108.132 74.8394 106.182 76.7199C104.302 78.5306 101.934 79.436 99.0783 79.436C96.1532 79.436 93.7156 78.5306 91.7656 76.7199C89.8852 74.8394 88.945 72.4019 88.945 69.4071C88.945 68.5018 89.0146 67.6312 89.1539 66.7955C89.2932 65.8901 89.5718 64.8454 89.9896 63.6614C90.4075 62.4775 90.9995 60.9105 91.7656 58.9604L97.8247 43.9171L108.167 43.9171Z" fill="#5DB168"/>
<path d="M357.635 313.482L364.53 288.41L366.828 297.812C363.834 297.812 361.396 296.942 359.516 295.201C357.635 293.46 356.695 291.057 356.695 287.992C356.695 284.998 357.67 282.56 359.62 280.68C361.501 278.869 363.869 277.964 366.724 277.964C369.649 277.964 372.087 278.869 374.037 280.68C375.917 282.56 376.857 284.998 376.857 287.992C376.857 288.898 376.788 289.768 376.648 290.604C376.509 291.509 376.23 292.554 375.813 293.738C375.395 294.922 374.803 296.489 374.037 298.439L367.978 313.482L357.635 313.482ZM332.981 313.482L339.876 288.41L342.174 297.812C339.179 297.812 336.742 296.942 334.861 295.201C332.981 293.46 332.041 291.057 332.041 287.992C332.041 284.998 333.016 282.56 334.966 280.68C336.846 278.869 339.214 277.964 342.07 277.964C344.995 277.964 347.432 278.869 349.382 280.68C351.263 282.56 352.203 284.998 352.203 287.992C352.203 288.898 352.133 289.768 351.994 290.604C351.855 291.509 351.576 292.554 351.158 293.738C350.74 294.922 350.148 296.489 349.382 298.439L343.323 313.482L332.981 313.482Z" fill="#5DB168"/>
<line x1="514.972" y1="34.9544" x2="538.29" y2="25.3373" stroke="#878787" stroke-width="1.04467"/>
<circle cx="542.388" cy="23.2458" r="5.22337" transform="rotate(-60 542.388 23.2458)" fill="#C25E5F"/>
<path d="M421.264 7.71605C421.09 4.75614 418.966 -0.432405 411.862 2.49268C410.643 3.18909 408.623 5.73105 410.295 10.3276L416.04 47.4135C416.737 49.1546 418.757 52.3235 421.264 51.0699C423.005 50.8958 426.173 48.9805 424.92 42.7125L421.264 23.9084" stroke="#C5B5B5" stroke-width="2.08935"/>
</svg>
