<svg width="567" height="355" viewBox="0 0 567 355" fill="none" xmlns="http://www.w3.org/2000/svg">
<rect x="1.64199" y="28.8198" width="527.145" height="325.74" rx="9.66323" transform="rotate(-3.01498 1.64199 28.8198)" stroke="black" stroke-width="1.56701" stroke-dasharray="7.31 7.31"/>
<g clip-path="url(#clip0_18_368)">
<rect x="39.2075" y="13.9355" width="527.113" height="324.792" rx="10.4467" transform="rotate(0.989292 39.2075 13.9355)" fill="#FCE4EC"/>
<line x1="60.9184" y1="290.201" x2="99.6724" y2="312.797" stroke="black" stroke-width="1.04467"/>
<circle cx="103.493" cy="315.516" r="5.22337" transform="rotate(2.48592 103.493 315.516)" fill="#EED06F"/>
<path d="M92.5117 41.763L85.6168 66.8352L83.3186 57.4332C86.3133 57.4332 88.7509 58.3037 90.6313 60.0448C92.5117 61.786 93.4519 64.1887 93.4519 67.2531C93.4519 70.2478 92.4769 72.6854 90.5268 74.5658C88.6464 76.3766 86.2785 77.2819 83.423 77.2819C80.4979 77.2819 78.0604 76.3766 76.1103 74.5658C74.2299 72.6854 73.2897 70.2478 73.2897 67.2531C73.2897 66.3477 73.3593 65.4771 73.4986 64.6414C73.6379 63.736 73.9165 62.6913 74.3344 61.5074C74.7522 60.3234 75.3442 58.7564 76.1103 56.8063L82.1694 41.763L92.5117 41.763ZM117.166 41.763L110.271 66.8352L107.973 57.4332C110.968 57.4332 113.405 58.3037 115.286 60.0448C117.166 61.786 118.106 64.1887 118.106 67.2531C118.106 70.2478 117.131 72.6854 115.181 74.5658C113.301 76.3766 110.933 77.2819 108.077 77.2819C105.152 77.2819 102.715 76.3766 100.765 74.5658C98.8842 72.6854 97.944 70.2478 97.944 67.2531C97.944 66.3477 98.0136 65.4771 98.1529 64.6414C98.2922 63.736 98.5708 62.6913 98.9887 61.5074C99.4065 60.3234 99.9985 58.7564 100.765 56.8063L106.824 41.763L117.166 41.763Z" fill="#5DB168"/>
<path d="M351.495 273.611L344.6 298.683L342.301 289.281C345.296 289.281 347.734 290.152 349.614 291.893C351.495 293.634 352.435 296.037 352.435 299.101C352.435 302.096 351.46 304.534 349.51 306.414C347.629 308.225 345.261 309.13 342.406 309.13C339.481 309.13 337.043 308.225 335.093 306.414C333.213 304.534 332.273 302.096 332.273 299.101C332.273 298.196 332.342 297.325 332.482 296.49C332.621 295.584 332.899 294.54 333.317 293.356C333.735 292.172 334.327 290.605 335.093 288.655L341.152 273.611L351.495 273.611ZM376.149 273.611L369.254 298.683L366.956 289.281C369.95 289.281 372.388 290.152 374.268 291.893C376.149 293.634 377.089 296.037 377.089 299.101C377.089 302.096 376.114 304.534 374.164 306.414C372.284 308.225 369.916 309.13 367.06 309.13C364.135 309.13 361.698 308.225 359.748 306.414C357.867 304.534 356.927 302.096 356.927 299.101C356.927 298.196 356.997 297.325 357.136 296.49C357.275 295.584 357.554 294.54 357.972 293.356C358.389 292.172 358.981 290.605 359.748 288.655L365.807 273.611L376.149 273.611Z" fill="#5DB168"/>
<line x1="525.703" y1="51.4158" x2="549.416" y2="42.8191" stroke="#878787" stroke-width="1.04467"/>
<circle cx="553.601" cy="40.9082" r="5.22337" transform="rotate(-57.5141 553.601 40.9082)" fill="#C25E5F"/>
</g>
<path d="M426.168 19.7307C425.994 16.7708 423.869 11.5822 416.766 14.5073C415.547 15.2037 413.527 17.7457 415.199 22.3423L420.944 59.4282C421.641 61.1693 423.661 64.3381 426.168 63.0845C427.909 62.9104 431.077 60.9952 429.823 54.7271L426.168 35.923" stroke="#C5B5B5" stroke-width="2.08935"/>
<defs>
<clipPath id="clip0_18_368">
<rect x="39.2075" y="13.9355" width="527.113" height="324.792" rx="10.4467" transform="rotate(0.989292 39.2075 13.9355)" fill="white"/>
</clipPath>
</defs>
</svg>
