<svg width="90" height="102" viewBox="0 0 90 102" fill="none" xmlns="http://www.w3.org/2000/svg">
<path d="M33.5566 6.89102C27.508 20.1897 25.9618 34.8256 26.8185 49.2943C27.3095 57.6099 27.0901 76.1947 37.7667 78.9944C48.6522 81.8463 54.0949 68.088 55.7768 60.0022C58.4721 46.9752 57.9706 33.0392 53.6143 20.4195C51.4832 14.2351 48.4223 7.00593 43.5437 2.47205C39.2396 -1.52905 34.9147 0.361811 31.1121 4.04951C30.642 4.50916 31.3628 5.21955 31.8329 4.77034C45.8315 -8.78953 55.0247 26.6562 55.9858 35.9121C57.1558 47.2363 56.7693 61.8513 50.3968 71.7235C48.5895 74.5232 45.9046 77.0826 42.5721 77.9079C36.1474 79.4854 32.5119 74.7426 30.7569 69.5296C28.6153 63.178 28.2392 55.9489 27.8423 49.3048C26.9961 35.0345 28.4691 20.5345 34.4341 7.41336C34.7058 6.81789 33.8282 6.29556 33.5566 6.89102Z" fill="#00477C"/>
<path d="M5.60144 35.8081C14.5438 44.8132 25.304 51.917 37.3804 55.9599C47.1481 59.2297 61.5437 62.1025 71.2592 57.2135C82.3014 51.6558 76.1273 39.6107 68.6893 34.0426C57.8664 25.9464 43.9514 23.0109 30.7154 22.2065C22.4311 21.705 -2.77683 21.7677 1.40186 36.2364C1.57945 36.8632 2.56142 36.5916 2.38382 35.9648C-0.812877 24.9122 16.8317 23.1467 24.019 23.0318C30.5378 22.9273 37.2028 23.5436 43.5962 24.7868C50.5955 26.1449 57.4486 28.4118 63.6435 31.9846C69.8488 35.5574 79.6897 43.2775 75.5215 51.5513C69.7653 62.9801 47.942 58.3104 38.3937 55.2286C26.1919 51.2902 15.3169 44.1759 6.31181 35.0977C5.85215 34.6276 5.14178 35.3485 5.60144 35.8081Z" fill="#00477C"/>
<path d="M8.4319 60.8274C18.3041 47.2467 28.4374 33.7913 39.9288 21.5164C45.3924 15.6871 51.1591 9.94138 58.0226 5.75224C62.452 3.04653 70.1616 -0.0665984 72.5331 7.21478C73.9329 11.4979 71.5929 16.5751 69.7125 20.2523C63.1624 33.0913 52.935 45.3454 42.4987 55.1966C37.0246 60.3573 31.0073 64.9539 24.3841 68.5371C20.9158 70.4175 15.8177 73.3217 11.7958 71.6502C3.79355 68.3282 12.0987 58.0381 14.4806 54.7161C14.8567 54.1833 13.9791 53.6819 13.603 54.2042C11.1167 57.6621 4.18008 65.4971 7.38723 70.0205C10.3332 74.1783 16.6326 73.1755 20.571 71.5458C34.7263 65.6956 46.4162 53.8072 55.8287 42.086C60.6656 36.0582 65.4815 29.7588 69.3468 23.052C72.0734 18.3301 75.4059 11.8845 73.2748 6.3268C68.4797 -6.20928 51.6396 8.65643 46.6147 13.3261C31.7072 27.1576 19.4636 43.9246 7.54392 60.3051C7.17829 60.8483 8.05582 61.3498 8.4319 60.8274Z" fill="#00477C"/>
<path d="M38.9364 36.7693C35.3845 40.342 41.9973 46.4012 44.7134 42.2434C45.8939 40.4361 45.2358 37.4483 43.2613 36.4663C41.078 35.3903 38.3305 36.9678 37.0664 38.7228C36.6799 39.2556 37.5574 39.757 37.9439 39.2347C38.8215 38.0229 40.2005 37.2185 41.7152 37.1976C43.7314 37.1662 44.9119 39.7257 44.0135 41.439C42.2898 44.7506 36.9829 40.1854 39.6572 37.4901C40.1169 37.02 39.396 36.3096 38.9364 36.7693Z" fill="#00477C"/>
<path d="M1.44301 35.4321C1.04604 37.4275 2.32056 39.7257 4.30544 40.3317C6.40523 40.9689 8.39012 39.1721 8.19163 37.0409C8.01403 35.056 5.956 33.0189 3.88755 33.2592C1.66239 33.5204 0.931137 36.1007 1.65196 37.9393C1.89224 38.5348 2.87423 38.2736 2.63396 37.6677C2.14296 36.435 2.35188 34.5233 3.96068 34.283C5.41278 34.0636 6.85445 35.5366 7.14695 36.8633C7.51259 38.5348 5.87243 40.0078 4.28453 39.2452C3.03092 38.6497 2.15339 37.0723 2.42501 35.7037C2.55037 35.056 1.56837 34.7844 1.44301 35.4321Z" fill="#00477C"/>
<path d="M18.3461 69.77C17.782 71.8071 18.7849 74.0323 20.6549 75.0038C22.2637 75.85 24.447 75.5679 25.1887 73.7293C25.8678 72.0683 24.656 69.7491 22.8069 69.5402C21.0309 69.3417 20.3101 71.2952 20.9474 72.6846C21.219 73.2801 22.0965 72.7578 21.8249 72.1727C21.4802 71.431 21.8458 70.3759 22.8382 70.5639C23.3292 70.658 23.8098 71.1699 24.0501 71.5773C24.7604 72.7787 24.1649 74.3248 22.692 74.471C20.4041 74.6904 18.7536 72.0683 19.3177 70.0312C19.5057 69.4043 18.5237 69.1432 18.3461 69.77Z" fill="#00477C"/>
<path d="M68.783 18.3928C66.328 21.7566 71.7603 32.1094 74.9675 27.9098C76.336 26.1234 75.657 21.9865 74.3198 20.3045C72.4603 17.9749 69.8277 19.3539 68.1353 21.0149C67.6652 21.4746 68.3861 22.1849 68.8562 21.7357C70.6217 20.012 73.2333 19.1658 74.1631 22.2581C74.3615 22.9371 74.4661 23.7102 74.5287 24.3997C74.581 24.8071 74.6019 25.2041 74.6019 25.6115C74.7795 26.5308 74.3825 27.0322 73.4109 27.1054C72.7005 27.8053 72.1051 27.7531 71.6245 26.9487C71.2798 26.5412 70.9663 26.1129 70.6947 25.6533C70.3709 25.1414 70.0889 24.5981 69.8382 24.0445C69.1173 22.4357 68.5114 20.4612 69.6501 18.9047C70.047 18.3719 69.1696 17.8705 68.783 18.3928Z" fill="#00477C"/>
<path d="M32.7624 2.6079C29.1896 3.28694 30.4954 8.24914 31.9266 10.3176C33.4623 12.5427 36.3456 12.9502 37.1605 9.91017C37.7037 7.87306 37.2023 2.31539 34.1936 2.30495C30.9029 2.2945 30.4641 7.24625 30.3074 9.52364C30.2656 10.1713 31.279 10.1713 31.3207 9.52364C31.4252 7.99841 31.5088 6.26426 32.2714 4.89574C32.9818 3.61079 34.1309 2.93175 35.3427 4.20625C35.9695 4.85395 36.1889 6.36873 36.2934 7.22536C36.3979 8.09244 36.471 9.23113 36.0427 10.0251C35.2278 11.5712 33.7757 11.0698 32.9191 9.94151C31.8117 8.47897 30.2029 4.12268 33.0444 3.57945C33.6713 3.46454 33.3996 2.49299 32.7624 2.6079Z" fill="#00477C"/>
<path d="M48.2866 67.5242C48.1194 70.888 50.2401 74.3982 53.3742 75.7249C56.1634 76.9054 59.1094 75.6831 58.7751 72.3819C58.4617 69.321 56.2679 64.6931 52.5279 64.9961C48.5686 65.3199 48.976 70.303 49.9163 72.9252C50.1356 73.5311 51.1176 73.2699 50.8982 72.6535C50.0834 70.3762 49.6969 64.6827 53.8756 66.2601C56.1112 67.1063 58.0961 70.5642 57.8036 72.9983C57.3752 76.4979 53.4682 75.0667 51.7653 73.4579C50.1461 71.9223 49.185 69.7702 49.2895 67.5346C49.3313 66.8765 48.3179 66.8765 48.2866 67.5242Z" fill="#00477C"/>
<path d="M87.6437 62.1005C86.1498 75.4306 82.7964 88.3323 77.6462 100.712C77.2806 101.589 78.7117 101.976 79.0669 101.109C84.2694 88.5935 87.602 75.5664 89.1167 62.1005C89.2212 61.1603 87.7482 61.1708 87.6437 62.1005Z" fill="#00477C"/>
</svg>
