<svg width="218" height="194" viewBox="0 0 218 194" fill="none" xmlns="http://www.w3.org/2000/svg">
<path d="M96.2207 65.1194C94.288 77.9898 98.8846 90.4945 108.652 99.0922C117.856 107.188 129.535 108.839 141.131 105.329C149.812 102.696 156.895 97.2536 159.12 88.1544C161.732 77.5092 158.891 65.7566 156.739 55.2995C156.551 54.3697 155.119 54.7667 155.318 55.6964C158.786 72.5888 163.665 95.3209 143.304 103.041C132.178 107.262 120.018 106.582 110.648 98.8728C100.713 90.693 95.7297 78.2823 97.6414 65.5164C97.7772 64.5762 96.3565 64.1792 96.2207 65.1194Z" fill="#00477C"/>
<path d="M96.5228 71.8471C91.0174 72.944 84.2375 74.2289 81.1975 79.5568C78.544 84.216 79.3902 90.1289 81.4169 94.8508C83.0675 98.7056 85.9298 102.728 90.3175 103.532C96.3034 104.629 103.073 101.558 108.067 98.5176C108.881 98.0266 108.14 96.7416 107.325 97.2431C103.721 99.4369 100.033 101.046 95.8438 101.767C89.0012 102.937 84.8538 99.7294 82.4302 93.4509C80.8423 89.3558 80.2051 84.2891 82.472 80.3194C85.2926 75.3885 91.8218 74.3125 96.9094 73.2887C97.8496 73.0902 97.4526 71.6695 96.5228 71.8471Z" fill="#00477C"/>
<path d="M127.978 107.356C127.466 109.946 127.383 114.271 129.9 115.985C132.815 117.959 139.01 116.12 141.946 115.003C144.818 113.916 148.349 112.046 148.903 108.672C149.31 106.186 147.973 103.94 145.591 103.25C144.672 102.989 144.286 104.41 145.194 104.671C150.345 106.165 145.968 111.304 143.701 112.6C142.029 113.561 140.065 114.156 138.195 114.564C136.67 114.898 133.745 115.64 132.126 115.086C128.877 113.979 128.877 110.396 129.399 107.742C129.587 106.823 128.166 106.426 127.978 107.356Z" fill="#00477C"/>
<path d="M134.267 116.246C135.406 119.944 136.294 123.767 136.513 127.633C136.764 132.041 135.823 140.89 130.088 141.934C129.158 142.101 129.545 143.533 130.485 143.355C135.165 142.509 137.108 136.951 137.777 132.762C138.675 127.173 137.338 121.177 135.698 115.849C135.416 114.94 133.985 115.326 134.267 116.246Z" fill="#00477C"/>
<path d="M141.591 114.501C142.75 120.738 145.205 126.766 148.976 131.895C150.982 134.622 154.064 139.03 157.887 137.045C158.734 136.607 157.981 135.332 157.146 135.771C153.186 137.819 148.182 128.197 146.929 125.753C145.038 122.065 143.774 118.168 143.022 114.115C142.844 113.175 141.423 113.572 141.591 114.501Z" fill="#00477C"/>
<path d="M125.063 145.267C134.486 143 143.961 140.921 153.416 138.769C155.735 138.236 158.556 137.087 160.927 137.025C162.128 136.199 163.069 136.356 163.758 137.484C164.207 139.574 163.716 140.702 162.306 140.859C160.843 141.715 158.138 141.757 156.487 142.081C150.501 143.282 144.494 144.39 138.477 145.445C135.886 145.904 133.285 146.354 130.684 146.761C129.764 146.907 128.124 147.492 127.215 147.294C125.471 146.907 125.941 146.542 125.575 144.358C125.418 143.418 123.998 143.815 124.154 144.755C124.363 145.988 124.583 147.231 124.792 148.464C124.844 148.746 125.21 149.038 125.502 149.007C133.745 148.004 141.935 146.374 150.083 144.828C154.043 144.076 158.169 143.523 162.055 142.436C166.056 141.308 165.325 139.72 165.147 135.437C165.127 134.946 164.688 134.611 164.207 134.726C151.055 137.892 137.819 140.681 124.666 143.846C123.747 144.066 124.134 145.487 125.063 145.267Z" fill="#00477C"/>
<path d="M95.917 75.8063C91.2996 77.0912 87.1 78.6164 84.9793 83.2861C83.5585 86.4202 83.8824 89.7109 85.0419 92.8554C88.3536 101.787 98.9362 99.7711 105.267 95.0178C106.019 94.4537 105.277 93.1687 104.525 93.7433C98.8317 98.0265 89.0535 100.262 86.2851 91.8629C85.5225 89.5542 85.1673 87.2037 85.9613 84.8114C87.5492 80.0163 91.9263 78.4493 96.3244 77.227C97.2228 76.9763 96.8363 75.5555 95.917 75.8063Z" fill="#00477C"/>
<path d="M157.646 62.1526C162.494 60.9931 168.72 59.238 173.264 62.2258C177.37 64.9315 178.958 70.1548 179.188 74.8245C179.47 80.5911 177.715 85.2817 171.885 87.1621C167.299 88.6351 162.818 88.8231 158.085 88.2904C157.145 88.1859 157.145 89.6589 158.085 89.7634C163.841 90.4215 171.363 90.3484 176.294 86.8383C180.326 83.9654 180.984 78.2928 180.587 73.7485C180.17 69.0579 178.404 64.0748 174.424 61.2542C169.43 57.7128 162.713 59.426 157.26 60.7319C156.33 60.9513 156.727 62.372 157.646 62.1526Z" fill="#00477C"/>
<path d="M158.316 65.9031C162.662 65.1718 167.018 64.1376 170.894 66.8224C173.359 68.5356 174.529 71.0324 174.957 73.9157C175.417 77.0393 175.166 80.0688 172.314 82.0746C168.7 84.6236 163.57 84.8848 159.392 83.9655C158.462 83.7565 158.065 85.1877 158.995 85.3862C167.248 87.2144 177.642 84.1953 176.483 74.2605C176.075 70.813 174.79 67.7939 171.917 65.6941C167.655 62.5706 162.776 63.657 157.929 64.4719C156.979 64.6286 157.376 66.0598 158.316 65.9031Z" fill="#00477C"/>
<path d="M98.1736 66.3415C117.27 61.5046 136.826 59.4257 156.216 56.1977C157.156 56.041 156.759 54.6202 155.819 54.7769C136.43 57.9945 116.873 60.0839 97.7766 64.9207C96.8573 65.1505 97.2543 66.5713 98.1736 66.3415Z" fill="#00477C"/>
<path d="M124.781 70.8442C123.057 74.2811 119.923 78.4598 119.37 82.2624C119.317 82.6072 119.411 82.8997 119.704 83.0982C121.417 84.216 123.726 84.6965 125.638 85.3756C125.909 85.4696 126.348 85.3129 126.473 85.0413C127.111 83.5787 127.79 82.3982 128.709 81.0924C128.249 80.967 127.79 80.8417 127.33 80.7163C127.476 82.0431 127.591 83.14 127.811 84.4563C127.925 85.1771 129.179 89.0737 128.949 89.6901C128.375 91.2362 124.718 91.6018 123.172 92.3853C122.89 92.5211 122.734 92.9286 122.828 93.2211C123.548 95.4044 123.423 97.4206 125.575 97.9012C127.497 98.3295 131.258 96.6267 133.107 96.1566C136.189 95.3626 139.239 94.4851 142.29 93.5449C142.676 93.43 142.917 93.033 142.802 92.636C142.478 91.4451 142.311 90.0975 141.694 89.011C141.569 88.7916 141.318 88.6454 141.057 88.6454C139.856 88.6558 138.393 89.7214 137.275 89.4916C134.81 88.9693 134.57 86.18 134.162 84.2369C133.358 80.3925 132.71 76.5167 131.665 72.735C130.266 67.6475 129.075 67.5221 124.447 70.2905C123.632 70.7815 124.374 72.056 125.188 71.565C133.546 66.561 130.569 88.9797 134.977 91.2362C135.687 91.6018 137.014 90.9646 137.672 90.9123C141.015 90.6407 141.527 91.9361 138.236 93.2211C135.614 94.2448 132.668 94.7672 129.931 95.4149C128.385 95.7805 127.393 96.376 126.003 95.3731C123.141 93.3255 128.646 92.051 130.151 91.9466C130.621 91.9152 131.007 91.4974 130.861 91.0168C129.869 87.6112 129.19 84.2578 128.803 80.7268C128.719 79.9955 127.863 79.7343 127.424 80.3507C126.672 81.4163 126.265 82.6803 125.042 83.1191C123.225 83.7772 121.595 82.252 121.699 80.2462C121.835 77.739 124.906 73.8424 126.045 71.5859C126.484 70.7397 125.209 69.998 124.781 70.8442Z" fill="#00477C"/>
<path d="M152.121 62.9883C153.197 70.0294 155.506 81.2179 151.045 87.4337C150.491 88.2068 151.766 88.9485 152.319 88.1754C157.156 81.4268 154.701 70.1757 153.552 62.5914C153.406 61.6616 151.985 62.0586 152.121 62.9883Z" fill="#00477C"/>
<path d="M148.757 93.9315C147.462 95.4045 145.885 96.5536 144.056 97.2849C143.189 97.6296 143.565 99.0608 144.453 98.7056C146.522 97.8804 148.329 96.6476 149.802 94.9657C150.429 94.2658 149.395 93.2107 148.757 93.9315Z" fill="#00477C"/>
<path d="M143.304 107.92C143.795 108.024 143.868 108.578 143.711 108.996C143.492 109.581 142.917 110.009 142.447 110.395C141.716 111.012 142.771 112.046 143.492 111.44C144.348 110.73 145.247 109.852 145.268 108.651C145.278 107.669 144.693 106.697 143.701 106.488C142.771 106.3 142.374 107.721 143.304 107.92Z" fill="#00477C"/>
<path d="M139.961 120.591C141.121 124.916 142.447 129.294 146.041 132.229C146.772 132.825 147.817 131.79 147.086 131.184C143.67 128.385 142.489 124.3 141.382 120.195C141.131 119.275 139.71 119.672 139.961 120.591Z" fill="#00477C"/>
<path d="M96.9206 1.35272C105.09 5.80303 114.294 7.85059 123.267 10.316C152.205 18.2451 180.944 31.7109 199.382 55.3728C217.821 79.0347 223.211 114.637 205.817 139.093C198.693 149.122 188.455 156.549 177.716 162.535C165.295 169.462 151.421 174.81 137.214 174.09C121.47 173.296 107.169 165.241 92.1673 160.415C71.7858 153.854 49.7118 153.28 28.7034 157.343C20.1998 158.994 11.3201 161.71 5.73106 168.323C0.142061 174.936 -0.254943 186.49 6.94286 191.285C12.1871 194.784 19.573 193.468 24.6083 189.676C29.6437 185.884 32.7777 180.107 35.3058 174.33C37.8861 168.438 39.6829 160.697 35.0237 156.257C33.0179 154.345 30.2286 153.541 27.5125 152.998C18.7059 151.232 9.48144 151.587 0.831543 154.042" stroke="#00477C" stroke-width="1.56701" stroke-miterlimit="10" stroke-linecap="round" stroke-dasharray="10.17 10.17"/>
</svg>
